<?xml version="1.0" encoding="UTF-8" standalone="no"?>
<!-- Uploaded to: SVG Repo, www.svgrepo.com, Generator: SVG Repo Mixer Tools -->

<svg
   fill="#000000"
   height="1507.3608"
   width="1507.3608"
   version="1.1"
   id="Capa_1"
   viewBox="0 0 969.47044 969.47044"
   xml:space="preserve"
   sodipodi:docname="favicon.svg"
   inkscape:version="1.4 (e7c3feb100, 2024-10-09)"
   inkscape:export-filename="galaxy.png"
   inkscape:export-xdpi="70.993263"
   inkscape:export-ydpi="70.993263"
   xmlns:inkscape="http://www.inkscape.org/namespaces/inkscape"
   xmlns:sodipodi="http://sodipodi.sourceforge.net/DTD/sodipodi-0.dtd"
   xmlns:xlink="http://www.w3.org/1999/xlink"
   xmlns="http://www.w3.org/2000/svg"
   xmlns:svg="http://www.w3.org/2000/svg"><defs
   id="defs14"><linearGradient
     id="linearGradient124"
     inkscape:collect="always"><stop
       style="stop-color:#ffff00;stop-opacity:1;"
       offset="0"
       id="stop124" /><stop
       style="stop-color:#ff00ff;stop-opacity:1;"
       offset="1"
       id="stop125" /></linearGradient><linearGradient
     id="linearGradient122"
     inkscape:collect="always"><stop
       style="stop-color:#ffff0c;stop-opacity:1;"
       offset="0"
       id="stop122" /><stop
       style="stop-color:#ff00ff;stop-opacity:1;"
       offset="1"
       id="stop123" /></linearGradient><linearGradient
     inkscape:collect="always"
     xlink:href="#linearGradient122"
     id="linearGradient123"
     x1="0.00053889613"
     y1="257.26312"
     x2="514.52631"
     y2="257.26312"
     gradientUnits="userSpaceOnUse" /><linearGradient
     inkscape:collect="always"
     xlink:href="#linearGradient124"
     id="linearGradient125"
     x1="0.00053889613"
     y1="257.26312"
     x2="514.52631"
     y2="257.26312"
     gradientUnits="userSpaceOnUse" /><linearGradient
     inkscape:collect="always"
     xlink:href="#linearGradient122"
     id="linearGradient152"
     gradientUnits="userSpaceOnUse"
     x1="0.00053889613"
     y1="257.26312"
     x2="514.52631"
     y2="257.26312" /><linearGradient
     inkscape:collect="always"
     xlink:href="#linearGradient124"
     id="linearGradient153"
     gradientUnits="userSpaceOnUse"
     x1="0.00053889613"
     y1="257.26312"
     x2="514.52631"
     y2="257.26312" /><linearGradient
     inkscape:collect="always"
     xlink:href="#linearGradient122"
     id="linearGradient22"
     gradientUnits="userSpaceOnUse"
     x1="0.00053889613"
     y1="257.26312"
     x2="514.52631"
     y2="257.26312"
     gradientTransform="matrix(0.91296296,0,0,0.91296296,22.391779,22.391174)" /><linearGradient
     inkscape:collect="always"
     xlink:href="#linearGradient124"
     id="linearGradient27"
     gradientUnits="userSpaceOnUse"
     x1="0.00053889613"
     y1="257.26312"
     x2="514.52631"
     y2="257.26312" /></defs><sodipodi:namedview
   id="namedview14"
   pagecolor="#ffffff"
   bordercolor="#000000"
   borderopacity="0.25"
   inkscape:showpageshadow="2"
   inkscape:pageopacity="0.0"
   inkscape:pagecheckerboard="0"
   inkscape:deskcolor="#d1d1d1"
   showgrid="false"
   inkscape:zoom="0.46625"
   inkscape:cx="828.95442"
   inkscape:cy="855.76408"
   inkscape:window-width="1745"
   inkscape:window-height="910"
   inkscape:window-x="0"
   inkscape:window-y="0"
   inkscape:window-maximized="1"
   inkscape:current-layer="g121" />
<g
   id="g14"
   transform="translate(227.4718,227.4588)">
	
	
	
	
	
	
	
	
	
	
	
	
	
	<rect
   style="fill:#00000c;fill-opacity:1;stroke:none;stroke-width:43.5317;stroke-linecap:round;stroke-linejoin:round;stroke-dasharray:none;stroke-opacity:1"
   id="rect125"
   width="969.47046"
   height="969.47046"
   x="-227.4718"
   y="-227.4588"
   ry="340.65054" /><g
   id="g121"
   style="fill:url(#linearGradient123);fill-opacity:1;stroke:url(#linearGradient125);stroke-width:8.50791;stroke-dasharray:none;stroke-opacity:1"
   transform="matrix(0.15779092,1.3632955,-1.3632955,0.15779092,567.41373,-134.0459)"><path
     d="m 168.71596,175.46077 c -0.0229,0.23908 -0.0344,0.47941 -0.0344,0.71933 0,1.91938 0.73208,3.8387 2.19658,5.3027 1.464,1.465 3.38283,2.19676 5.30283,2.19676 1.919,0 3.83869,-0.73159 5.30269,-2.19659 4.85,-4.85 9.83123,-9.67281 14.80423,-14.33581 3.022,-2.833 3.1745,-7.58002 0.3415,-10.60102 -2.833,-3.021 -7.58002,-3.1745 -10.60102,-0.3415 -5.09,4.773 -10.18805,9.70964 -15.15005,14.67264 -1.09838,1.09837 -1.78492,2.45215 -2.05951,3.87024 -0.0457,0.23634 -0.0799,0.47417 -0.10283,0.71325 z"
     style="fill:url(#linearGradient152);stroke:url(#linearGradient153)"
     id="path19" /><g
     id="g27"
     style="stroke:url(#linearGradient27);stroke-width:17.97461834;stroke-dasharray:none"><path
       d="m 478.30281,28.039312 c -0.0229,0.239047 -0.0344,0.479409 -0.0344,0.71933 0,1.919375 0.73209,3.838695 2.19659,5.302695 8.981,8.98 15.02858,20.80559 17.97758,35.14959 0.729,3.548 3.85362,5.990908 7.33862,5.990908 0.5,0 1.00902,-0.05009 1.51802,-0.15509 4.057,-0.834 6.66971,-4.798724 5.83571,-8.855724 -3.55,-17.267 -10.97314,-31.644935 -22.06414,-42.735935 -2.929,-2.929 -7.67751,-2.929176 -10.60551,-1.76e-4 -1.28144,1.281438 -2.00224,2.911076 -2.16245,4.584402 z"
       style="fill:url(#linearGradient152);stroke:url(#linearGradient27);stroke-width:17.97461834;stroke-dasharray:none"
       id="path22" /><path
       d="m 353.09729,359.0266 c -0.0915,0.47269 -0.13725,0.95274 -0.13725,1.43258 0,1.91938 0.73209,3.8387 2.19659,5.3027 1.464,1.464 3.38473,2.19686 5.30373,2.19686 1.919,0 3.83869,-0.73158 5.30269,-2.19658 58.221,-58.221 104.08478,-123.7551 129.14178,-184.5291 1.579,-3.83 -0.24544,-8.21366 -4.07444,-9.79266 -3.831,-1.579 -8.21466,0.24444 -9.79266,4.07444 -24.321,58.988 -69.02693,122.78652 -125.88093,179.64152 -1.09837,1.09837 -1.78492,2.45215 -2.05951,3.87024 z"
       style="fill:url(#linearGradient152);stroke:url(#linearGradient27);stroke-width:17.97461834;stroke-dasharray:none"
       id="path21" /><path
       d="m 215.11215,133.37951 c -0.19087,1.90988 0.34767,3.89273 1.65917,5.49573 1.483,1.811 3.63622,2.75006 5.80822,2.75006 1.67,0 3.35238,-0.55526 4.74538,-1.69626 90.917,-74.396006 181.87855,-103.420219 216.28555,-69.012219 2.929,2.929 7.67752,2.929176 10.60552,1.76e-4 2.929,-2.929 2.92918,-7.677517 1.8e-4,-10.605517 -20.727,-20.727 -55.37496,-24.362704 -100.19996,-10.514704 -41.679,12.877 -90.04608,40.764058 -136.19008,78.524064 -1.603,1.3115 -2.5231,3.1488 -2.71398,5.05867 z"
       style="fill:url(#linearGradient152);stroke:url(#linearGradient27);stroke-width:17.97461834;stroke-dasharray:none"
       id="path20" /><path
       d="m 144.2359,337.16987 c -1.13064,10.6912 0.99349,19.62806 7.24364,25.87797 5.18836,5.1902 12.22517,7.53342 20.58608,7.53342 1.99471,0 4.06494,-0.13391 6.20256,-0.39426 2.13761,-0.26036 4.34242,-0.64729 6.60843,-1.15444 31.72406,-7.1002 75.31992,-37.72356 110.8772,-73.28084 25.64103,-25.64102 48.71554,-55.46007 62.25427,-81.99348 1.69234,-3.31668 3.2351,-6.58068 4.61586,-9.78012 1.38075,-3.19944 2.59871,-6.33409 3.64066,-9.38713 6.25165,-18.31825 6.15998,-33.73823 -3.21523,-43.1131 -9.37488,-9.37522 -24.79595,-9.46726 -43.11422,-3.21549 -3.05304,1.04197 -6.18642,2.25977 -9.38586,3.64054 -3.19943,1.38077 -6.46412,2.92433 -9.78079,4.61669 -26.53346,13.53884 -56.35227,36.6129 -81.99329,62.25347 -38.46153,38.46153 -71.14741,86.32318 -74.53931,118.39677 z m 19.75567,-13.96727 c 2.79906,-26.46776 29.77179,-65.96389 61.511,-97.7031 21.15948,-21.15911 45.76672,-40.20001 67.66265,-51.37253 2.73699,-1.39656 5.43103,-2.67076 8.07127,-3.8102 2.64024,-1.13943 5.22633,-2.144 7.74575,-3.00386 15.1166,-5.15908 27.84221,-5.08374 35.57855,2.65288 7.73661,7.73633 7.8125,20.46248 2.65352,35.57906 -0.85984,2.51943 -1.86431,5.10493 -3.00373,7.74517 -1.13943,2.64025 -2.41347,5.33503 -3.81003,8.07202 -11.17242,21.8959 -30.2136,46.503 -51.37308,67.66247 -29.34257,29.34257 -65.31867,54.61322 -91.49799,60.47245 -1.86996,0.41851 -3.68958,0.73786 -5.45358,0.95271 -1.76401,0.21485 -3.47229,0.32532 -5.11836,0.32532 -6.89959,0 -12.70676,-1.93371 -16.9883,-6.21677 -5.15775,-5.15755 -6.9107,-12.53304 -5.97767,-21.35562 z"
       style="fill:url(#linearGradient22);stroke:url(#linearGradient27);stroke-width:17.97461834;stroke-dasharray:none"
       id="path27" /><path
       d="m 58.25138,447.48058 c -0.09153,0.47269 -0.137247,0.95274 -0.137247,1.43258 0,1.91938 0.732084,3.8387 2.196584,5.3027 12.482,12.482 30.009684,18.76489 51.771693,18.76489 14.374,0 30.59746,-2.7432 48.42746,-8.2512 41.679,-12.877 90.04599,-40.76396 136.19099,-78.52396 3.206,-2.623 3.6777,-7.34749 1.0547,-10.55349 -2.623,-3.206 -7.34849,-3.67871 -10.55349,-1.05471 -90.916,74.396 -181.87565,103.42032 -216.284645,69.01232 -2.929,-2.929 -7.678532,-2.92837 -10.606532,6.3e-4 -1.098375,1.09838 -1.784916,2.45215 -2.059513,3.87024 z"
       style="fill:url(#linearGradient152);stroke:url(#linearGradient27);stroke-width:17.97461834;stroke-dasharray:none"
       id="path17" /><path
       d="m 14.980344,345.5666 c -0.0777,0.49232 -0.104966,0.98511 -0.08466,1.47185 0.121782,2.9204 1.955456,5.6247 4.864706,6.71445 0.867,0.325 1.755528,0.47941 2.629528,0.47941 3.037,0 5.895884,-1.85927 7.023884,-4.87127 23.194,-61.908 69.347298,-129.38087 129.957301,-189.99087 2.929,-2.929 2.92928,-7.67842 2.8e-4,-10.60642 -2.929,-2.929 -7.67853,-2.92837 -10.60653,6.3e-4 -62.093006,62.092 -109.467021,131.46218 -133.397021,195.33318 -0.181625,0.48488 -0.30978,0.97672 -0.387485,1.46904 z"
       style="fill:url(#linearGradient152);stroke:url(#linearGradient27);stroke-width:17.97461834;stroke-dasharray:none"
       id="path16" /><path
       d="m 1.2722911,446.08249 c -0.072659,0.73429 -0.037495,1.49212 0.1188796,2.25281 3.549,17.266 10.9731363,31.64494 22.0641363,42.73594 1.464,1.465 3.383822,2.19676 5.302822,2.19676 1.919,0 3.838695,-0.73159 5.302695,-2.19659 2.929,-2.929 2.929281,-7.67742 2.81e-4,-10.60642 -8.98,-8.981 -15.029497,-20.8067 -17.978497,-35.1497 -0.833,-4.057 -4.800619,-6.67262 -8.8556194,-5.83662 -3.04275,0.6255 -5.2735278,3.01246 -5.8467622,5.87826 -0.04777,0.23882 -0.083716,0.4808 -0.1079353,0.72556 z"
       style="fill:url(#linearGradient152);stroke:url(#linearGradient27);stroke-width:17.97461834;stroke-dasharray:none"
       id="path15" /></g></g>
</g>
</svg>
